<svg width="189" height="82" viewBox="0 0 189 82" fill="none" xmlns="http://www.w3.org/2000/svg">
<mask id="mask0_27_1142" style="mask-type:alpha" maskUnits="userSpaceOnUse" x="0" y="0" width="189" height="82">
<rect width="188.867" height="81.3346" fill="#D9D9D9"/>
</mask>
<g mask="url(#mask0_27_1142)">
<g filter="url(#filter0_d_27_1142)">
<path fill-rule="evenodd" clip-rule="evenodd" d="M258.389 2.8954L256.404 10.3902C254.418 17.7147 250.447 32.3636 246.656 38.4957C242.685 44.6278 238.714 42.2431 234.742 41.0507C230.771 39.688 226.8 39.688 223.009 41.0507C219.038 42.2431 215.067 44.6278 211.096 43.4354C207.124 42.2431 203.334 37.3033 199.362 37.3033C195.391 37.3033 191.42 42.2431 187.449 44.6278C183.478 47.1828 179.687 47.1828 175.716 44.6278C171.744 42.2431 167.773 37.3033 163.802 34.9186C160.011 32.3636 156.04 32.3636 152.069 26.2315C148.098 20.0993 144.126 7.83514 140.155 6.64278C136.365 5.45043 132.393 15.1596 128.422 13.9672C124.451 12.7749 120.48 0.510674 116.689 4.25807C112.718 7.83513 108.747 27.4238 104.775 32.3636C100.804 37.3033 96.8329 27.4238 93.0422 28.7865C89.071 29.9788 85.0997 42.2431 81.1285 44.6278C77.1573 47.1828 73.3666 39.688 69.3954 32.3636C65.4242 25.0391 61.4529 17.7146 57.4817 18.907C53.5105 20.0993 49.7198 29.9788 45.7486 26.2314C41.7774 22.6544 37.8062 5.45042 33.8349 6.64277C30.0442 7.83512 26.073 27.4238 22.1018 28.7865C18.1306 29.9788 14.1594 12.7749 10.1882 4.25806C6.39745 -4.42909 2.42624 -4.42909 0.440616 -4.42909L-1.54498 -4.42909L-1.54498 -11.7536L0.440617 -11.7536C2.42624 -11.7536 6.39745 -11.7536 10.1882 -11.7536C14.1594 -11.7536 18.1306 -11.7536 22.1018 -11.7535C26.073 -11.7535 30.0442 -11.7535 33.8349 -11.7535C37.8062 -11.7535 41.7774 -11.7535 45.7486 -11.7535C49.7198 -11.7535 53.5105 -11.7535 57.4817 -11.7535C61.4529 -11.7535 65.4242 -11.7535 69.3954 -11.7535C73.3666 -11.7535 77.1573 -11.7535 81.1285 -11.7535C85.0997 -11.7535 89.071 -11.7535 93.0422 -11.7535C96.8329 -11.7535 100.804 -11.7535 104.775 -11.7535C108.747 -11.7535 112.718 -11.7535 116.689 -11.7535C120.48 -11.7535 124.451 -11.7535 128.422 -11.7535C132.393 -11.7535 136.365 -11.7535 140.155 -11.7535C144.126 -11.7535 148.098 -11.7535 152.069 -11.7535C156.04 -11.7535 160.011 -11.7535 163.802 -11.7535C167.773 -11.7535 171.744 -11.7535 175.716 -11.7535C179.687 -11.7535 183.478 -11.7535 187.449 -11.7535C191.42 -11.7535 195.391 -11.7535 199.362 -11.7535C203.334 -11.7535 207.124 -11.7535 211.096 -11.7535C215.067 -11.7535 219.038 -11.7535 223.009 -11.7535C226.8 -11.7535 230.771 -11.7535 234.742 -11.7535C238.714 -11.7535 242.685 -11.7535 246.656 -11.7535C250.447 -11.7535 254.418 -11.7535 256.404 -11.7535L258.389 -11.7535L258.389 2.8954Z" stroke="#9747FF" stroke-width="4" shape-rendering="crispEdges"/>
</g>
</g>
<defs>
<filter id="filter0_d_27_1142" x="-29.5449" y="-35.7536" width="315.934" height="114.298" filterUnits="userSpaceOnUse" color-interpolation-filters="sRGB">
<feFlood flood-opacity="0" result="BackgroundImageFix"/>
<feColorMatrix in="SourceAlpha" type="matrix" values="0 0 0 0 0 0 0 0 0 0 0 0 0 0 0 0 0 0 127 0" result="hardAlpha"/>
<feOffset dy="4"/>
<feGaussianBlur stdDeviation="13"/>
<feComposite in2="hardAlpha" operator="out"/>
<feColorMatrix type="matrix" values="0 0 0 0 0.588235 0 0 0 0 0.392157 0 0 0 0 1 0 0 0 0.5 0"/>
<feBlend mode="normal" in2="BackgroundImageFix" result="effect1_dropShadow_27_1142"/>
<feBlend mode="normal" in="SourceGraphic" in2="effect1_dropShadow_27_1142" result="shape"/>
</filter>
</defs>
</svg>
