<svg width="41" height="41" viewBox="0 0 41 41" fill="none" xmlns="http://www.w3.org/2000/svg">
<path d="M1.99422 15.6688L8.62189 9.04221C9.30066 8.38677 10.3823 8.40559 11.0378 9.08425C11.6774 9.74626 11.6774 10.7958 11.0378 11.4578L4.41016 18.0845C4.21321 18.2852 4.04118 18.509 3.89757 18.7507C3.9232 18.7507 3.94371 18.737 3.96934 18.737L30.7671 18.7917C31.7107 18.7917 32.4756 19.5565 32.4756 20.5C32.4756 21.4435 31.7107 22.2083 30.7671 22.2083L3.97959 22.1536C3.93177 22.1536 3.89245 22.1297 3.84632 22.1263C3.99785 22.4153 4.19007 22.6811 4.41696 22.9156L11.0446 29.5422C11.7234 30.1977 11.7422 31.2791 11.0867 31.9578C10.4311 32.6364 9.34951 32.6552 8.67074 31.9998C8.65649 31.986 8.64247 31.972 8.6287 31.9578L2.00102 25.3311C-0.667042 22.6627 -0.667042 18.3372 2.00102 15.6688H1.99422Z" fill="white"/>
<path d="M29.0398 37.5833H32.457C35.2879 37.5833 37.5828 35.2887 37.5828 32.4583V8.54169C37.5828 5.71125 35.2879 3.41669 32.457 3.41669H29.0398C28.0962 3.41669 27.3312 2.65187 27.3312 1.70839C27.3312 0.764906 28.0961 0 29.0398 0H32.457C37.1728 0.00568555 40.9943 3.82661 41 8.54169V32.4584C40.9943 37.1734 37.1728 40.9944 32.457 41H29.0397C28.0961 41 27.3311 40.2352 27.3311 39.2917C27.3311 38.3482 28.0961 37.5833 29.0398 37.5833Z" fill="white"/>
</svg>
